<svg xmlns="http://www.w3.org/2000/svg" width="686" height="383">
 <!-- Created with Image Occlusion Enhanced -->
 <g display="inline">
  <title>Labels</title>
 </g>
 <g display="inline">
  <title>Masks</title>
  <g id="dabbcaf289264f2b8d50eb6f32025fb6-oa-1">
   <rect height="54.78261" width="123.47826" y="95.40577" x="398.05797" stroke-linecap="null" stroke-linejoin="null" stroke-dasharray="null" stroke="#2D2D2D" fill="#FFEBA2"/>
   <g>
    <rect height="16.52174" width="132.17391" y="94.10144" x="530.23185" stroke="#2D2D2D" fill="#FFEBA2"/>
    <rect height="16.52174" width="132.17391" y="113.66665" x="530.23188" stroke="#2D2D2D" fill="#FFEBA2"/>
    <rect height="16.52174" width="132.17391" y="133.66666" x="531.10146" stroke="#2D2D2D" fill="#FFEBA2"/>
   </g>
  </g>
  <g id="dabbcaf289264f2b8d50eb6f32025fb6-oa-2">
   <rect height="54.78261" width="123.47826" y="157.1449" x="399.7971" stroke-linecap="null" stroke-linejoin="null" stroke-dasharray="null" stroke="#2D2D2D" fill="#FFEBA2"/>
   <g>
    <rect height="16.52174" width="132.17391" y="154.53622" x="530.23191" stroke="#2D2D2D" fill="#FFEBA2"/>
    <rect height="16.52174" width="132.17391" y="175.40578" x="530.23191" stroke="#2D2D2D" fill="#FFEBA2"/>
    <rect height="16.52174" width="132.17391" y="197.14491" x="529.36234" stroke="#2D2D2D" fill="#FFEBA2"/>
   </g>
  </g>
  <g id="dabbcaf289264f2b8d50eb6f32025fb6-oa-3">
   <rect height="54.78261" width="123.47826" y="220.62316" x="399.7971" stroke-linecap="null" stroke-linejoin="null" stroke-dasharray="null" stroke="#2D2D2D" fill="#FFEBA2"/>
   <g>
    <rect height="16.52174" width="132.17391" y="217.14491" x="532.84059" stroke="#2D2D2D" fill="#FFEBA2"/>
    <rect height="16.52174" width="132.17391" y="238.01448" x="531.10147" stroke="#2D2D2D" fill="#FFEBA2"/>
    <rect stroke="#2D2D2D" height="42.60871" width="132.17391" y="258.01445" x="531.10146" fill="#FFEBA2"/>
   </g>
  </g>
  <g id="dabbcaf289264f2b8d50eb6f32025fb6-oa-4">
   <rect height="54.78261" width="123.47826" y="305.40578" x="399.79707" stroke-linecap="null" stroke-linejoin="null" stroke-dasharray="null" stroke="#2D2D2D" fill="#FFEBA2"/>
   <g>
    <rect height="16.52174" width="132.17391" y="303.23187" x="530.23191" stroke="#2D2D2D" fill="#FFEBA2"/>
    <rect height="16.52174" width="132.17391" y="324.10143" x="529.36234" stroke="#2D2D2D" fill="#FFEBA2"/>
    <rect stroke="#2D2D2D" height="16.52174" width="132.17391" y="344.971" x="529.36233" fill="#FFEBA2"/>
   </g>
  </g>
 </g>
</svg>